<svg xmlns="http://www.w3.org/2000/svg" viewBox="0 0 30 30" width="30" height="30">
  <rect width="30" height="30" fill="#1a1a1a"/>
  <!-- 相机多个堆叠表示啥都拍 -->
  <rect x="4" y="14" width="8" height="6" fill="#2a2a2a"/>
  <rect x="5" y="15" width="6" height="4" fill="#333"/>
  <rect x="6" y="16" width="4" height="2" fill="#ff6b35"/>
  
  <rect x="10" y="12" width="8" height="6" fill="#2a2a2a"/>
  <rect x="11" y="13" width="6" height="4" fill="#333"/>
  <rect x="12" y="14" width="4" height="2" fill="#ff6b35"/>
  
  <rect x="16" y="8" width="8" height="6" fill="#2a2a2a"/>
  <rect x="17" y="9" width="6" height="4" fill="#333"/>
  <rect x="18" y="10" width="4" height="2" fill="#ff6b35"/>
  
  <rect x="20" y="16" width="8" height="6" fill="#2a2a2a"/>
  <rect x="21" y="17" width="6" height="4" fill="#333"/>
  <rect x="22" y="18" width="4" height="2" fill="#ff6b35"/>
  
  <!-- 金钱符号 -->
  <rect x="12" y="22" width="6" height="4" fill="#ff6b35"/>
  <rect x="13" y="23" width="1" height="2" fill="#1a1a1a"/>
  <rect x="15" y="23" width="1" height="2" fill="#1a1a1a"/>
</svg>